<?xml version="1.0" encoding="UTF-8" standalone="no"?><!DOCTYPE svg PUBLIC "-//W3C//DTD SVG 1.1//EN" "http://www.w3.org/Graphics/SVG/1.1/DTD/svg11.dtd"><svg width="100%" height="100%" viewBox="0 0 308 72" version="1.1" xmlns="http://www.w3.org/2000/svg" xmlns:xlink="http://www.w3.org/1999/xlink" xml:space="preserve" xmlns:serif="http://www.serif.com/" style="fill-rule:evenodd;clip-rule:evenodd;stroke-linejoin:round;stroke-miterlimit:2;"><g><path d="M27.801,0.027l-0,69.96l-5.684,-0l-0,-69.96l5.684,-0Zm21.425,5.684l-48.535,-0l0,-5.684l48.535,-0l0,5.684Z" style="fill:#fff;fill-rule:nonzero;"/><path d="M81.408,61.154c-1.866,3.148 -4.387,5.626 -7.565,7.433c-3.177,1.808 -6.719,2.711 -10.625,2.711c-4.197,0 -7.958,-1.035 -11.281,-3.104c-3.323,-2.07 -5.903,-4.868 -7.739,-8.395c-1.837,-3.528 -2.755,-7.419 -2.755,-11.675c0,-4.198 0.918,-8.06 2.755,-11.587c1.836,-3.527 4.416,-6.311 7.739,-8.352c3.323,-2.04 7.084,-3.06 11.281,-3.06c4.606,-0 8.599,1.166 11.981,3.498c3.381,2.332 5.917,5.465 7.608,9.401c1.691,3.935 2.361,8.176 2.011,12.724l-5.771,-0c0.349,-3.848 -0.059,-7.273 -1.225,-10.276c-1.166,-3.002 -3.002,-5.363 -5.509,-7.083c-2.507,-1.72 -5.539,-2.58 -9.095,-2.58c-3.031,-0 -5.772,0.714 -8.22,2.142c-2.449,1.429 -4.358,3.455 -5.728,6.078c-1.37,2.624 -2.055,5.655 -2.055,9.095c-0,3.498 0.685,6.573 2.055,9.226c1.37,2.653 3.279,4.693 5.728,6.122c2.448,1.428 5.189,2.142 8.22,2.142c2.973,0 5.641,-0.685 8.002,-2.055c2.361,-1.37 4.241,-3.309 5.64,-5.815l4.548,3.41Zm0.787,-15.653l-0,5.247l-34.98,-0l-0,-5.247l34.98,-0Z" style="fill:#fff;fill-rule:nonzero;"/><path d="M91.465,0.027l5.684,-0l-0,26.235l-5.684,-0l-0,-26.235Zm23.961,71.271c-6.005,0 -10.552,-1.996 -13.642,-5.99c-3.09,-3.994 -4.635,-9.722 -4.635,-17.184c-0,-4.664 0.685,-8.716 2.055,-12.156c1.37,-3.439 3.425,-6.106 6.165,-8.001c2.74,-1.895 6.092,-2.842 10.057,-2.842c3.906,-0 7.448,1.035 10.625,3.104c3.177,2.07 5.67,4.854 7.477,8.352c1.807,3.498 2.711,7.345 2.711,11.543c-0,4.256 -0.904,8.147 -2.711,11.675c-1.807,3.527 -4.3,6.325 -7.477,8.395c-3.177,2.069 -6.719,3.104 -10.625,3.104Zm-1.662,-5.684c3.032,0 5.83,-0.729 8.395,-2.186c2.566,-1.458 4.592,-3.513 6.078,-6.165c1.487,-2.653 2.23,-5.699 2.23,-9.139c0,-3.381 -0.743,-6.398 -2.23,-9.051c-1.486,-2.653 -3.512,-4.693 -6.078,-6.122c-2.565,-1.428 -5.363,-2.142 -8.395,-2.142c-2.74,-0 -5.29,0.772 -7.652,2.317c-2.361,1.545 -4.226,3.688 -5.596,6.428c-1.37,2.74 -2.055,5.83 -2.055,9.27c-0,3.031 0.714,5.844 2.142,8.439c1.428,2.594 3.323,4.634 5.684,6.121c2.361,1.487 4.854,2.23 7.477,2.23Zm-22.299,-39.352l5.684,-0l-0.875,12.417l2.187,0l-0,18.89l-2.187,-0l0.875,12.418l-5.684,-0l-0,-43.725Z" style="fill:#fff;fill-rule:nonzero;"/><path d="M181.276,61.154c-1.866,3.148 -4.387,5.626 -7.565,7.433c-3.177,1.808 -6.719,2.711 -10.625,2.711c-4.198,0 -7.958,-1.035 -11.281,-3.104c-3.323,-2.07 -5.903,-4.868 -7.739,-8.395c-1.837,-3.528 -2.755,-7.419 -2.755,-11.675c0,-4.198 0.918,-8.06 2.755,-11.587c1.836,-3.527 4.416,-6.311 7.739,-8.352c3.323,-2.04 7.083,-3.06 11.281,-3.06c4.606,-0 8.599,1.166 11.981,3.498c3.381,2.332 5.917,5.465 7.608,9.401c1.691,3.935 2.361,8.176 2.011,12.724l-5.771,-0c0.349,-3.848 -0.059,-7.273 -1.225,-10.276c-1.166,-3.002 -3.002,-5.363 -5.509,-7.083c-2.507,-1.72 -5.539,-2.58 -9.095,-2.58c-3.032,-0 -5.772,0.714 -8.22,2.142c-2.449,1.429 -4.358,3.455 -5.728,6.078c-1.37,2.624 -2.055,5.655 -2.055,9.095c-0,3.498 0.685,6.573 2.055,9.226c1.37,2.653 3.279,4.693 5.728,6.122c2.448,1.428 5.188,2.142 8.22,2.142c2.973,0 5.641,-0.685 8.002,-2.055c2.361,-1.37 4.241,-3.309 5.64,-5.815l4.548,3.41Zm0.787,-15.653l-0,5.247l-34.98,-0l-0,-5.247l34.98,-0Z" style="fill:#fff;fill-rule:nonzero;"/><path d="M195.88,47.774c-0,-4.489 0.583,-8.337 1.749,-11.543c1.166,-3.207 2.944,-5.67 5.334,-7.39c2.391,-1.72 5.335,-2.579 8.833,-2.579l-0,5.684c-4.14,-0 -7.608,1.224 -10.407,3.673c-2.798,2.448 -4.197,6.5 -4.197,12.155l-1.312,0Zm-4.373,-21.512l5.685,-0l-2.187,12.417l2.187,0l-0,31.308l-5.685,-0l0,-43.725Z" style="fill:#fff;fill-rule:nonzero;"/><path d="M218.967,26.262l5.684,-0l-0,43.725l-5.684,-0l-0,-43.725Zm2.885,-8.745c-1.282,-0 -2.346,-0.423 -3.191,-1.268c-0.846,-0.846 -1.268,-1.881 -1.268,-3.105c-0,-1.224 0.422,-2.259 1.268,-3.104c0.845,-0.846 1.909,-1.268 3.191,-1.268c1.166,-0 2.172,0.422 3.017,1.268c0.846,0.845 1.269,1.88 1.269,3.104c-0,1.224 -0.423,2.259 -1.269,3.105c-0.845,0.845 -1.851,1.268 -3.017,1.268Z" style="fill:#fff;fill-rule:nonzero;"/><path d="M259.369,69.987c-5.889,-0 -10.174,-0.656 -12.856,-1.968c-2.681,-1.312 -4.43,-3.469 -5.247,-6.471c-0.816,-3.003 -1.224,-7.681 -1.224,-14.036l5.684,-0c0,5.597 0.277,9.474 0.831,11.631c0.554,2.157 1.705,3.556 3.454,4.197c1.749,0.642 4.868,0.962 9.358,0.962l-0,5.685Zm-19.327,-61.215l5.684,-0l0,38.74l-5.684,-0l0,-38.74Zm-9.532,17.49l28.684,-0l-0,5.596l-28.684,0l0,-5.596Z" style="fill:#fff;fill-rule:nonzero;"/><path d="M303.793,61.154c-1.865,3.148 -4.387,5.626 -7.564,7.433c-3.178,1.808 -6.719,2.711 -10.625,2.711c-4.198,0 -7.958,-1.035 -11.282,-3.104c-3.323,-2.07 -5.902,-4.868 -7.739,-8.395c-1.836,-3.528 -2.755,-7.419 -2.755,-11.675c0,-4.198 0.919,-8.06 2.755,-11.587c1.837,-3.527 4.416,-6.311 7.739,-8.352c3.324,-2.04 7.084,-3.06 11.282,-3.06c4.605,-0 8.599,1.166 11.98,3.498c3.382,2.332 5.918,5.465 7.608,9.401c1.691,3.935 2.361,8.176 2.012,12.724l-5.772,-0c0.35,-3.848 -0.058,-7.273 -1.224,-10.276c-1.166,-3.002 -3.003,-5.363 -5.51,-7.083c-2.507,-1.72 -5.538,-2.58 -9.094,-2.58c-3.032,-0 -5.772,0.714 -8.221,2.142c-2.448,1.429 -4.358,3.455 -5.728,6.078c-1.37,2.624 -2.055,5.655 -2.055,9.095c0,3.498 0.685,6.573 2.055,9.226c1.37,2.653 3.28,4.693 5.728,6.122c2.449,1.428 5.189,2.142 8.221,2.142c2.973,0 5.64,-0.685 8.001,-2.055c2.361,-1.37 4.242,-3.309 5.641,-5.815l4.547,3.41Zm0.787,-15.653l0,5.247l-34.98,-0l0,-5.247l34.98,-0Z" style="fill:#fff;fill-rule:nonzero;"/></g></svg>